<svg width="32" height="32" viewBox="0 0 32 32" fill="none" xmlns="http://www.w3.org/2000/svg">
<g clip-path="url(#clip0_81_130)">
<path d="M16 2.66666C8.64002 2.66666 2.66669 8.63999 2.66669 16C2.66669 23.36 8.64002 29.3333 16 29.3333C23.36 29.3333 29.3334 23.36 29.3334 16C29.3334 8.63999 23.36 2.66666 16 2.66666ZM16 6.66666C18.2134 6.66666 20 8.45332 20 10.6667C20 12.88 18.2134 14.6667 16 14.6667C13.7867 14.6667 12 12.88 12 10.6667C12 8.45332 13.7867 6.66666 16 6.66666ZM16 25.6C12.6667 25.6 9.72002 23.8933 8.00002 21.3067C8.04002 18.6533 13.3334 17.2 16 17.2C18.6534 17.2 23.96 18.6533 24 21.3067C22.28 23.8933 19.3334 25.6 16 25.6Z" fill="white"/>
</g>
<defs>
<clipPath id="clip0_81_130">
<rect width="32" height="32" fill="none"/>
</clipPath>
</defs>
</svg>
